DataType=double
version=3
OpenSimVersion=4.2-2021-03-12-fcedec9
endheader
time	ground_force_r_vx	ground_force_r_vy	ground_force_r_vz	ground_force_r_px	ground_force_r_py	ground_force_r_pz	ground_force_l_vx	ground_force_l_vy	ground_force_l_vz	ground_force_l_px	ground_force_l_py	ground_force_l_pz	ground_torque_r_x	ground_torque_r_y	ground_torque_r_z	ground_torque_l_x	ground_torque_l_y	ground_torque_l_z
0.868	-1.027346773464722	0.9331161502870816	0	0	0	0	0	0	0	0	0	0	0	0	0.002663626866938147	0	0	0
0.8707127445460497	-11.44598517742723	11.53340716056121	0	0	0	0	0	0	0	0	0	0	0	0	0.09183491542890783	0	0	0
0.8734254890920995	-66.92342541886684	65.22434258150263	0	0	0	0	0	0	0	0	0	0	0	0	0.6535614443011548	0	0	0
0.8761382336381494	-202.759271003105	200.0489219794916	0	0	0	0	0	0	0	0	0	0	0	0	2.619836727957961	0	0	0
0.8788509781841991	-500.7757657006091	560.0763731645951	0	0	0	0	0	0	0	0	0	0	0	0	9.419077605847747	0	0	0
0.8815637227302489	-504.3674886621239	892.4432603351705	0	0	0	0	0	0	0	0	0	0	0	0	20.09765051298049	0	0	0
0.8842764672762986	-486.6123464543915	1144.667145259085	0	0	0	0	0	0	0	0	0	0	0	0	28.91653050301503	0	0	0
0.8869892118223484	-380.0684468566082	1333.187773559875	0	0	0	0	0	0	0	0	0	0	0	0	37.25364474018241	0	0	0
0.8897019563683982	-213.747473105672	1486.634802584591	0	0	0	0	0	0	0	0	0	0	0	0	46.90627328146367	0	0	0
0.892414700914448	-60.83028752786541	1614.681238574593	0	0	0	0	0	0	0	0	0	0	0	0	57.05811192058579	0	0	0
0.8951274454604977	10.3097326432504	1694.429375167205	0	0	0	0	0	0	0	0	0	0	0	0	65.69025349750831	0	0	0
0.8978401900065475	1.991263735826205	1725.899281137963	0	0	0	0	0	0	0	0	0	0	0	0	73.04144194768928	0	0	0
0.9005529345525973	-87.97190874845896	1724.366419738941	0	0	0	0	0	0	0	0	0	0	0	0	79.36819816386033	0	0	0
0.9032656790986471	-199.0710513922643	1690.934548688323	0	0	0	0	0	0	0	0	0	0	0	0	84.45287512480503	0	0	0
0.9059784236446968	-303.1183112541963	1648.450428282337	0	0	0	0	0	0	0	0	0	0	0	0	89.7682705766445	0	0	0
0.9086911681907466	-368.9346122572259	1605.865523377761	0	0	0	0	0	0	0	0	0	0	0	0	97.09572016821288	0	0	0
0.9114039127367963	-387.0063884595039	1572.07048649207	0	0	0	0	0	0	0	0	0	0	0	0	107.5423107560712	0	0	0
0.9141166572828462	-368.7402577342805	1549.931869972429	0	0	0	0	0	0	0	0	0	0	0	0	120.7351281402042	0	0	0
0.9168294018288959	-337.7453620100756	1540.17117271855	0	0	0	0	0	0	0	0	0	0	0	0	136.3950206903332	0	0	0
0.9195421463749457	-298.3405083056715	1550.470852646073	0	0	0	0	0	0	0	0	0	0	0	0	154.6087338734923	0	0	0
0.9222548909209954	-266.6396541262521	1570.970255515056	0	0	0	0	0	0	0	0	0	0	0	0	174.2621227131668	0	0	0
0.9249676354670452	-235.4528399042918	1597.045539859962	0	0	0	0	0	0	0	0	0	0	0	0	194.5356404570122	0	0	0
0.9276803800130951	-209.6373515404957	1621.388844672419	0	0	0	0	0	0	0	0	0	0	0	0	214.2496118691615	0	0	0
0.9303931245591448	-173.9003159320808	1645.309051478608	0	0	0	0	0	0	0	0	0	0	0	0	234.3575687841768	0	0	0
0.9331058691051946	-133.9803727427513	1670.57045114215	0	0	0	0	0	0	0	0	0	0	0	0	256.2165820562607	0	0	0
0.9358186136512443	-106.2976393256818	1673.250154399682	0	0	0	0	0	0	0	0	0	0	0	0	275.1802805754503	0	0	0
0.9385313581972941	-76.57573445969554	1681.17058544573	0	0	0	0	0	0	0	0	0	0	0	0	286.8067052739519	0	0	0
0.9412441027433439	-33.63771407653022	1692.031616158157	0	0	0	0	0	0	0	0	0	0	0	0	293.4861503667079	0	0	0
0.9439568472893937	-0.1502382473121457	1686.914813354808	0	0	0	0	0	0	0	0	0	0	0	0	297.7346280684051	0	0	0
0.9466695918354434	29.04161873602998	1680.047469564676	0	0	0	0	0	0	0	0	0	0	0	0	301.3590340282751	0	0	0
0.9493823363814932	65.85832695613276	1669.601454561606	0	0	0	0	0	0	0	0	0	0	0	0	304.764664544494	0	0	0
0.952095080927543	100.3155711900231	1652.645357567851	0	0	0	0	0	0	0	0	0	0	0	0	307.6756745883672	0	0	0
0.9548078254735928	132.4829079470605	1628.390799582914	0	0	0	0	0	0	0	0	0	0	0	0	309.5375899275842	0	0	0
0.9575205700196425	164.8152422808861	1599.195209769068	0	0	0	0	0	0	0	0	0	0	0	0	310.3913858441121	0	0	0
0.9602333145656923	200.7419725081592	1564.189453942507	0	0	0	0	0	0	0	0	0	0	0	0	310.1348943704714	0	0	0
0.962946059111742	229.0415351049284	1518.567070389898	0	0	0	0	0	0	0	0	0	0	0	0	307.1121896526519	0	0	0
0.9656588036577918	254.4574834915961	1481.748905619156	0	0	0	0	0	0	0	0	0	0	0	0	300.8350807182651	0	0	0
0.9683715482038416	285.4812671557983	1418.658714550497	0	0	0	0	0	0	0	0	0	0	0	0	289.9344423921899	0	0	0
0.9710842927498914	307.8768378454045	1359.381793544047	0	0	0	0	0	0	0	0	0	0	0	0	279.6138636822531	0	0	0
0.9737970372959411	329.5418849514347	1291.47470750944	0	0	0	0	0	0	0	0	0	0	0	0	267.7538982269224	0	0	0
0.976509781841991	348.4706290846628	1219.958720379369	0	0	0	0	0	0	0	0	0	0	0	0	255.2505163266645	0	0	0
0.9792225263880407	364.1381223956808	1138.468097451588	0	0	0	0	0	0	0	0	0	0	0	0	240.8522302907688	0	0	0
0.9819352709340905	376.869352532119	1048.729075510017	0	0	0	0	0	0	0	0	0	0	0	0	224.9381723090905	0	0	0
0.9846480154801402	386.009905911308	954.7373574657438	0	0	0	0	0	0	0	0	0	0	0	0	208.2510021923535	0	0	0
0.98736076002619	393.0992306794203	865.0326382261621	0	0	0	0	0	0	0	0	0	0	0	0	192.5174944182959	0	0	0
0.9900735045722397	388.6345080460664	766.3014746487462	0	0	0	0	0	0	0	0	0	0	0	0	174.4537941293958	0	0	0
0.9927862491182896	372.1166648454223	645.7254494865136	0	0	0	0	0	0	0	0	0	0	0	0	151.625315901199	0	0	0
0.9954989936643394	361.9894753148783	538.9171493943844	0	0	0	0	0	0	0	0	0	0	0	0	132.2605654891873	0	0	0
0.9982117382103891	364.7737218815291	493.9704013868212	0	0	0	0	0	0	0	0	0	0	0	0	125.4356043789222	0	0	0
1.000924482756439	275.9009710366527	406.4317802654309	0	0	0	0	0	0	0	0	0	0	0	0	100.7785471023248	0	0	0
1.003637227302489	52.89629544400692	144.2894095712726	0	0	0	0	0	0	0	0	0	0	0	0	30.04642875424054	0	0	0
1.006349971848538	5.239410608203731e-14	-4.988670565520553e-14	0	0	0	0	0	0	0	0	0	0	0	0	-6.78531469643876e-16	0	0	0
1.009062716394588	0	0	0	0	0	0	0	0	0	0	0	0	0	0	0	0	0	0
1.011775460940638	0	0	0	0	0	0	0	0	0	0	0	0	0	0	0	0	0	0
1.014488205486688	0	0	0	0	0	0	0	0	0	0	0	0	0	0	0	0	0	0
1.017200950032737	0	0	0	0	0	0	0	0	0	0	0	0	0	0	0	0	0	0
1.019913694578787	0	0	0	0	0	0	0	0	0	0	0	0	0	0	0	0	0	0
1.022626439124837	0	0	0	0	0	0	0	0	0	0	0	0	0	0	0	0	0	0
1.025339183670887	0	0	0	0	0	0	0	0	0	0	0	0	0	0	0	0	0	0
1.028051928216937	0	0	0	0	0	0	0	0	0	0	0	0	0	0	0	0	0	0
1.030764672762986	0	0	0	0	0	0	0	0	0	0	0	0	0	0	0	0	0	0
1.033477417309036	0	0	0	0	0	0	0	0	0	0	0	0	0	0	0	0	0	0
1.036190161855086	0	0	0	0	0	0	0	0	0	0	0	0	0	0	0	0	0	0
1.038902906401136	0	0	0	0	0	0	0	0	0	0	0	0	0	0	0	0	0	0
1.041615650947185	0	0	0	0	0	0	0	0	0	0	0	0	0	0	0	0	0	0
1.044328395493235	0	0	0	0	0	0	0	0	0	0	0	0	0	0	0	0	0	0
1.047041140039285	0	0	0	0	0	0	0	0	0	0	0	0	0	0	0	0	0	0
1.049753884585335	0	0	0	0	0	0	0	0	0	0	0	0	0	0	0	0	0	0
1.052466629131385	0	0	0	0	0	0	0	0	0	0	0	0	0	0	0	0	0	0
1.055179373677434	0	0	0	0	0	0	0	0	0	0	0	0	0	0	0	0	0	0
1.057892118223484	0	0	0	0	0	0	0	0	0	0	0	0	0	0	0	0	0	0
1.060604862769534	0	0	0	0	0	0	0	0	0	0	0	0	0	0	0	0	0	0
1.063317607315584	0	0	0	0	0	0	0	0	0	0	0	0	0	0	0	0	0	0
1.066030351861633	0	0	0	0	0	0	0	0	0	0	0	0	0	0	0	0	0	0
1.068743096407683	0	0	0	0	0	0	0	0	0	0	0	0	0	0	0	0	0	0
1.071455840953733	0	0	0	0	0	0	0	0	0	0	0	0	0	0	0	0	0	0
1.074168585499783	0	0	0	0	0	0	0	0	0	0	0	0	0	0	0	0	0	0
1.076881330045833	0	0	0	0	0	0	0	0	0	0	0	0	0	0	0	0	0	0
1.079594074591882	0	0	0	0	0	0	0	0	0	0	0	0	0	0	0	0	0	0
1.082306819137932	0	0	0	0	0	0	0	0	0	0	0	0	0	0	0	0	0	0
1.085019563683982	0	0	0	0	0	0	0	0	0	0	0	0	0	0	0	0	0	0
1.087732308230032	0	0	0	0	0	0	0	0	0	0	0	0	0	0	0	0	0	0
1.090445052776081	0	0	0	0	0	0	0	0	0	0	0	0	0	0	0	0	0	0
1.093157797322131	0	0	0	0	0	0	0	0	0	0	0	0	0	0	0	0	0	0
1.095870541868181	0	0	0	0	0	0	0	0	0	0	0	0	0	0	0	0	0	0
1.098583286414231	0	0	0	0	0	0	0	0	0	0	0	0	0	0	0	0	0	0
1.101296030960281	0	0	0	0	0	0	0	0	0	0	0	0	0	0	0	0	0	0
1.10400877550633	0	0	0	0	0	0	0	0	0	0	0	0	0	0	0	0	0	0
1.10672152005238	0	0	0	0	0	0	0	0	0	0	0	0	0	0	0	0	0	0
1.10943426459843	0	0	0	0	0	0	0	0	0	0	0	0	0	0	0	0	0	0
1.11214700914448	0	0	0	0	0	0	0	0	0	0	0	0	0	0	0	0	0	0
1.114859753690529	0	0	0	0	0	0	-4.064456566938772e-11	1.453243940944105e-11	0	0	0	0	0	0	0	0	0	-1.517558560808584e-12
1.117572498236579	0	0	0	0	0	0	-1.246512889655294e-09	4.784909649452854e-10	0	0	0	0	0	0	0	0	0	-4.214591949836539e-11
1.120285242782629	0	0	0	0	0	0	-3.916091775575021e-08	1.609479900803553e-08	0	0	0	0	0	0	0	0	0	-1.183010093468066e-09
1.122997987328679	0	0	0	0	0	0	-1.274301404151722e-06	5.618870248850963e-07	0	0	0	0	0	0	0	0	0	-3.374265956169138e-08
1.125710731874729	0	0	0	0	0	0	-4.163084171930284e-05	1.981054311589464e-05	0	0	0	0	0	0	0	0	0	-9.399637801205966e-07
1.128423476420778	0	0	0	0	0	0	-0.001343657198321661	0.0006894317385515237	0	0	0	0	0	0	0	0	0	-2.497631372141789e-05
1.131136220966828	0	0	0	0	0	0	-0.04196264094402616	0.02311428463066239	0	0	0	0	0	0	0	0	0	-0.0006102875726421452
1.133848965512878	0	0	0	0	0	0	-1.157778199690565	0.6949505728931182	0	0	0	0	0	0	0	0	0	-0.01172245538565609
1.136561710058928	0	0	0	0	0	0	-22.8586366737508	15.56751832457317	0	0	0	0	0	0	0	0	0	-0.1090760299598348
1.139274454604977	0	0	0	0	0	0	-140.6161419371703	128.4245476553647	0	0	0	0	0	0	0	0	0	0.7485237674065687
1.141987199151027	0	0	0	0	0	0	-653.2806474401214	654.8693584997974	0	0	0	0	0	0	0	0	0	7.244284984436815
1.144699943697077	0	0	0	0	0	0	-1645.172749707722	1595.051329195251	0	0	0	0	0	0	0	0	0	21.54527832159635
1.147412688243127	0	0	0	0	0	0	-2536.796693394887	2485.704240632394	0	0	0	0	0	0	0	0	0	41.95941196985287
1.150125432789177	0	0	0	0	0	0	-2792.648742979922	3085.799016626079	0	0	0	0	0	0	0	0	0	65.77056128764943
1.152838177335226	0	0	0	0	0	0	-403.0749167685534	3437.624714704882	0	0	0	0	0	0	0	0	0	114.1759112063056
1.155550921881276	0	0	0	0	0	0	-384.4438845300797	3715.672591616383	0	0	0	0	0	0	0	0	0	135.5550228987949
1.158263666427326	0	0	0	0	0	0	-330.6441886861202	3914.91910258672	0	0	0	0	0	0	0	0	0	154.6338974546234
1.160976410973376	0	0	0	0	0	0	-257.9127488961558	4057.133678885195	0	0	0	0	0	0	0	0	0	171.7076938817256
1.163689155519425	0	0	0	0	0	0	-167.3666245126867	4153.783461580686	0	0	0	0	0	0	0	0	0	186.3682259554703
1.166401900065475	0	0	0	0	0	0	-80.00321920419788	4183.230150640664	0	0	0	0	0	0	0	0	0	199.5089982391111
1.169114644611525	0	0	0	0	0	0	-9.298330685741831	4170.339622993444	0	0	0	0	0	0	0	0	0	214.9577843423825
1.171827389157575	0	0	0	0	0	0	50.88894858940215	4141.797005005138	0	0	0	0	0	0	0	0	0	233.2637466582113
1.174540133703625	0	0	0	0	0	0	100.7205365689605	4083.566468316238	0	0	0	0	0	0	0	0	0	251.8627767691177
1.177252878249674	0	0	0	0	0	0	146.3978830628294	4031.726711046901	0	0	0	0	0	0	0	0	0	272.3053230162712
1.179965622795724	0	0	0	0	0	0	183.5434184479884	3982.742068989179	0	0	0	0	0	0	0	0	0	294.8503582840466
1.182678367341774	0	0	0	0	0	0	216.9747287607442	3935.866529734816	0	0	0	0	0	0	0	0	0	318.9405066863706
1.185391111887824	0	0	0	0	0	0	254.630161876391	3893.647121133743	0	0	0	0	0	0	0	0	0	343.9146927861697
1.188103856433873	0	0	0	0	0	0	291.7279008971983	3863.611776928463	0	0	0	0	0	0	0	0	0	371.077774563929
1.190816600979923	0	0	0	0	0	0	340.1196579980801	3864.035250992662	0	0	0	0	0	0	0	0	0	401.5079315890903
1.193529345525973	0	0	0	0	0	0	395.9720669159873	3872.185839206356	0	0	0	0	0	0	0	0	0	433.0516861540508
1.196242090072023	0	0	0	0	0	0	461.5315859026349	3878.168918722572	0	0	0	0	0	0	0	0	0	464.1814178219112
1.198954834618073	0	0	0	0	0	0	535.9581722256078	3868.390652575542	0	0	0	0	0	0	0	0	0	492.9856133702898
1.201667579164122	0	0	0	0	0	0	613.3800022992883	3846.353682968505	0	0	0	0	0	0	0	0	0	521.6438867775446
1.204380323710172	0	0	0	0	0	0	682.1773835610679	3810.684914363977	0	0	0	0	0	0	0	0	0	552.5664669347716
1.207093068256222	0	0	0	0	0	0	704.148937583677	3719.01321682867	0	0	0	0	0	0	0	0	0	576.8142195540802
1.209805812802272	0	0	0	0	0	0	708.7624882378609	3497.708919291742	0	0	0	0	0	0	0	0	0	583.2649367750683
1.212518557348321	0	0	0	0	0	0	802.3586469795345	3330.368201622254	0	0	0	0	0	0	0	0	0	583.619052080777
1.215231301894371	0	0	0	0	0	0	908.067680363712	3287.774678947097	0	0	0	0	0	0	0	0	0	585.6852680521174
1.217944046440421	0	0	0	0	0	0	1009.734997632491	3240.006479511828	0	0	0	0	0	0	0	0	0	587.3879911692079
1.220656790986471	0	0	0	0	0	0	1111.879023877054	3185.572726269755	0	0	0	0	0	0	0	0	0	588.9333757104176
1.22336953553252	0	0	0	0	0	0	1179.738319815479	3116.358289038144	0	0	0	0	0	0	0	0	0	589.1910882753327
1.22608228007857	0	0	0	0	0	0	1224.278347274208	3029.77348893609	0	0	0	0	0	0	0	0	0	587.0403267792863
1.22879502462462	0	0	0	0	0	0	1260.004546445297	2929.410691831911	0	0	0	0	0	0	0	0	0	582.5438338321837
